<svg width="24" height="24" viewBox="0 0 24 24" fill="none" xmlns="http://www.w3.org/2000/svg">
<path d="M13 -0.00402832H5C2.243 -0.00402832 3.66171e-06 2.23897 3.66171e-06 4.99597V17.85C-0.000714945 18.2391 0.104348 18.6212 0.30396 18.9552C0.503571 19.2893 0.790224 19.5628 1.13327 19.7465C1.47631 19.9303 1.86284 20.0173 2.25153 19.9984C2.64022 19.9794 3.01646 19.8552 3.34 19.639L7.303 16.996H13C15.757 16.996 18 14.753 18 11.996V4.99597C18 2.23897 15.757 -0.00402832 13 -0.00402832ZM24 8.99597V21.85C24.0004 22.1323 23.9451 22.412 23.8372 22.673C23.7294 22.9339 23.5711 23.1711 23.3715 23.3708C23.1719 23.5705 22.9348 23.7289 22.6739 23.8368C22.413 23.9448 22.1334 24.0002 21.851 24C21.435 24 21.02 23.879 20.661 23.64L16.697 20.996H11C10.3108 20.9945 9.62943 20.8498 8.99917 20.5709C8.36892 20.292 7.80356 19.8851 7.339 19.376L7.908 18.996H13C16.859 18.996 20 15.855 20 11.996V4.99597C20 4.68797 19.973 4.38797 19.935 4.08997C21.0773 4.30743 22.1082 4.91625 22.8501 5.81167C23.592 6.70709 23.9987 7.83312 24 8.99597Z" fill="#64748B"/>
</svg>
